<?xml version="1.0" standalone="no"?>
<!DOCTYPE svg PUBLIC "-//W3C//DTD SVG 20010904//EN"
 "http://www.w3.org/TR/2001/REC-SVG-20010904/DTD/svg10.dtd">
<svg version="1.0" xmlns="http://www.w3.org/2000/svg"
 width="1226.000000pt" height="1226.000000pt" viewBox="0 0 1226.000000 1226.000000"
 preserveAspectRatio="xMidYMid meet">

<g transform="translate(0.000000,1226.000000) scale(0.100000,-0.100000)"
fill="#000000" stroke="none">
<path d="M5670 12249 c-1069 -86 -2048 -421 -2930 -1004 -350 -231 -618 -452
-945 -780 -328 -327 -546 -591 -780 -945 -494 -746 -827 -1613 -954 -2485 -49
-339 -56 -438 -56 -905 0 -467 7 -566 56 -905 127 -872 460 -1739 954 -2485
234 -354 452 -618 780 -945 507 -508 992 -857 1627 -1170 713 -352 1447 -551
2272 -615 166 -13 706 -13 872 0 827 64 1558 262 2273 615 634 314 1119 662
1626 1170 508 507 856 992 1170 1626 353 715 551 1446 615 2273 13 166 13 706
0 872 -64 827 -262 1558 -615 2273 -314 634 -662 1119 -1170 1626 -327 328
-595 549 -945 780 -891 589 -1865 920 -2954 1005 -151 12 -744 11 -896 -1z
m765 -489 c925 -68 1770 -388 2495 -944 967 -743 1604 -1858 1755 -3071 143
-1152 -158 -2315 -842 -3255 -324 -446 -753 -853 -1213 -1152 -598 -389 -1262
-627 -1998 -715 -211 -25 -796 -25 -1002 0 -934 116 -1729 456 -2440 1045
-237 197 -549 528 -742 788 -285 384 -523 844 -672 1297 -164 499 -234 975
-223 1526 9 493 78 895 232 1356 567 1703 2093 2928 3875 3109 85 9 180 17
210 19 135 8 437 6 565 -3z m-3335 -798 c-274 -214 -608 -559 -840 -867 -759
-1009 -1091 -2274 -930 -3542 212 -1659 1293 -3112 2824 -3793 138 -61 470
-188 531 -203 11 -3 -660 -5 -1492 -6 l-1512 -1 -54 68 c-284 358 -560 824
-748 1265 -392 915 -535 1899 -423 2902 144 1288 743 2510 1680 3425 278 271
499 450 829 672 157 107 203 134 135 80z m6455 -263 c800 -600 1435 -1407
1826 -2322 392 -915 535 -1898 423 -2902 -114 -1025 -538 -2059 -1171 -2857
l-54 -68 -1507 1 -1507 0 165 58 c919 321 1708 901 2292 1684 1089 1461 1262
3434 442 5064 -281 558 -669 1060 -1139 1471 -66 57 -127 111 -135 120 -29 28
236 -152 365 -249z m-4055 -8460 c-47 -28 -510 -308 -1029 -622 l-943 -570
-57 27 c-222 109 -615 365 -881 575 -205 161 -601 529 -662 614 l-19 27 1838
0 1838 0 -85 -51z m1807 -631 c620 -374 1132 -685 1137 -689 5 -5 -13 -18 -40
-30 -918 -398 -1926 -547 -2934 -433 -538 61 -1107 214 -1614 433 l-49 22 279
169 c153 92 666 403 1139 689 805 487 863 520 907 521 44 0 104 -35 1175 -682z
m3025 655 c-31 -43 -344 -347 -462 -449 -274 -236 -556 -438 -862 -617 -224
-131 -264 -150 -291 -136 -28 15 -2021 1220 -2026 1225 -2 2 820 4 1828 4
l1832 0 -19 -27z"/>
</g>
</svg>
